<svg version="1" xmlns="http://www.w3.org/2000/svg" width="1346.667" height="1346.667" viewBox="0 0 1010.000000 1010.000000"><path d="M137 18.9c-10.9 2.5-19 5.3-25.9 9.3C65.2 54 43.8 119.5 36 257.5c-4.5 81.3-4.5 315 0 430.5 5.4 135.7 19.5 212.4 46.7 253.3 5.6 8.5 16.7 20.5 23.9 25.7 34 25.3 87 23 166.9-7.2 73.2-27.7 170.2-76.8 365-185.1 169.6-94.2 250.1-146 297.5-191.4 44-42.2 57-77.4 42.5-115.9-9.7-25.8-37.8-56.5-82.5-90-49.6-37.3-123.6-81.6-254.5-152.6-260-141-366.4-190-444.7-204.9-16.5-3.1-47.9-3.6-59.8-1zm291.1 116.7c9 2.7 15.1 6.3 22 13.3 26.1 26.2 16.5 70-18.2 83.2-3 1.2-12.3 2.9-21.8 4-58.4 6.9-100.1 25.3-131.6 58.1-34.9 36.2-51.5 86.3-48.4 146 3 58.6 25.8 116.4 65.2 165.5 8.7 10.9 27.4 29.4 39.3 38.9 33.9 27.2 73 45.2 114.8 52.9 21.4 3.9 35.5 4.8 63.1 4.2 14-.3 27.2-.2 30 .4 8.1 1.5 19.3 7.6 25.6 13.9 26.7 26.6 16 71.7-19.9 84.1-12.4 4.3-62.1 5-92.2 1.4-57.2-6.9-110.2-26.1-157-57-84.7-55.8-145.4-148.2-164.9-250.5-4.7-24.9-5.6-36.1-5.6-68.5.1-33.3 1.3-45.3 7-70.5 25.9-114.7 112.2-194.1 235-216 28.3-5.1 47.9-6.3 57.6-3.4zm6.9 234.5c9.2 1.4 21.7 5.9 30.7 11 10.4 5.9 25.1 20.5 31.5 31.4 20.1 34.2 15.6 77.3-11.1 105.7-11.9 12.6-25.8 21.4-41.3 25.9-10.5 3-30.6 3.7-41.9 1.5-17.4-3.5-31.6-11.3-44.9-24.6-15.4-15.4-23.6-32.1-26.1-53.3-5.4-46.2 27.6-89.9 73.9-97.7 7-1.1 21.8-1.1 29.2.1z"/></svg>